<?xml version="1.0" standalone="no"?>
<!DOCTYPE svg PUBLIC "-//W3C//DTD SVG 20010904//EN"
 "http://www.w3.org/TR/2001/REC-SVG-20010904/DTD/svg10.dtd">
<svg version="1.0" xmlns="http://www.w3.org/2000/svg"
 width="1221.000000pt" height="506.000000pt" viewBox="0 0 1221.000000 506.000000"
 preserveAspectRatio="xMidYMid meet">

<g transform="translate(0.000000,506.000000) scale(0.100000,-0.100000)"
fill="#000000" stroke="none">
<path d="M2016 4751 c-4 -5 -21 -13 -39 -16 -71 -15 -237 -98 -237 -119 0 -11
39 -6 77 11 150 66 233 115 214 127 -5 4 -12 2 -15 -3z"/>
<path d="M2185 4740 c-22 -11 -44 -19 -49 -20 -16 0 -86 -62 -86 -76 0 -31 44
-37 106 -14 33 11 68 29 79 38 23 20 55 67 55 82 0 17 -62 11 -105 -10z"/>
<path d="M2422 4727 c-41 -42 -40 -60 1 -91 91 -70 211 23 130 99 -41 37 -90
34 -131 -8z"/>
<path d="M2690 4738 c0 -21 60 -98 76 -98 4 0 15 -6 23 -14 25 -21 105 -30
120 -13 23 29 -37 78 -161 131 -48 21 -58 20 -58 -6z"/>
<path d="M2940 4722 c0 -5 10 -14 23 -21 12 -6 36 -20 52 -31 17 -10 55 -31
85 -45 30 -14 63 -30 72 -35 22 -12 48 -13 48 -2 0 12 -34 42 -46 42 -6 0 -15
5 -21 11 -15 15 -181 89 -199 89 -8 0 -14 -4 -14 -8z"/>
<path d="M3328 4613 c7 -3 16 -2 19 1 4 3 -2 6 -13 5 -11 0 -14 -3 -6 -6z"/>
<path d="M1788 4501 c-31 -9 -63 -22 -70 -29 -6 -6 -18 -12 -25 -12 -21 0
-141 -125 -145 -151 -7 -49 3 -68 39 -75 49 -9 114 2 163 27 47 25 120 93 120
113 0 8 7 19 15 26 9 7 15 29 15 51 0 32 -5 41 -27 52 -24 11 -36 11 -85 -2z"/>
<path d="M2201 4501 c-57 -21 -106 -64 -133 -117 -24 -49 -20 -77 17 -116 30
-32 76 -43 150 -33 148 18 207 203 85 265 -46 23 -59 23 -119 1z"/>
<path d="M2646 4493 c-44 -12 -72 -79 -60 -141 9 -45 74 -107 129 -122 97 -27
195 15 195 85 0 53 -43 119 -104 159 -29 18 -123 30 -160 19z"/>
<path d="M1434 4475 c-10 -8 -25 -15 -32 -15 -19 0 -112 -67 -170 -124 -51
-48 -82 -93 -82 -116 0 -18 56 -10 101 15 24 14 50 28 58 31 42 21 201 191
201 215 0 14 -54 10 -76 -6z"/>
<path d="M3072 4478 c-46 -46 47 -204 150 -256 63 -31 142 -31 162 1 13 19 13
28 2 62 -37 108 -261 246 -314 193z"/>
<path d="M3446 4451 c-9 -14 54 -103 119 -167 91 -89 187 -139 223 -115 11 7
10 16 -6 47 -38 72 -124 149 -234 208 -68 36 -92 43 -102 27z"/>
<path d="M1180 4410 c-14 -11 -32 -26 -40 -32 -8 -7 -37 -31 -66 -53 -61 -48
-134 -113 -134 -120 0 -18 92 40 120 76 3 3 39 34 80 68 41 35 77 67 78 72 6
15 -11 10 -38 -11z"/>
<path d="M3815 4304 c50 -47 109 -99 133 -116 23 -17 42 -35 42 -40 0 -4 8 -8
18 -8 20 0 -153 172 -221 219 -75 51 -67 35 28 -55z"/>
<path d="M1281 4100 c-89 -32 -155 -91 -206 -183 -39 -71 -47 -143 -19 -171
56 -56 188 -12 281 94 36 41 62 102 69 162 6 54 5 58 -24 87 -36 36 -32 36
-101 11z"/>
<path d="M1763 4096 c-58 -30 -105 -73 -132 -121 -18 -33 -21 -53 -19 -109 3
-66 4 -70 41 -100 35 -28 46 -31 105 -31 182 0 325 177 252 312 -29 55 -64 73
-140 72 -47 0 -77 -7 -107 -23z"/>
<path d="M2404 4105 c-10 -8 -26 -15 -35 -15 -27 0 -80 -68 -96 -123 -14 -47
-14 -56 1 -102 17 -51 40 -85 66 -98 8 -4 26 -14 40 -22 28 -17 155 -20 192
-6 13 5 40 24 60 42 100 90 62 261 -71 320 -52 23 -129 25 -157 4z"/>
<path d="M3020 4093 c-33 -6 -57 -29 -78 -72 -49 -103 17 -239 144 -297 101
-46 197 -20 235 64 19 41 19 46 4 99 -23 79 -69 137 -145 184 -28 17 -119 30
-160 22z"/>
<path d="M895 4054 c-60 -46 -96 -84 -143 -154 -74 -110 -102 -193 -69 -206
49 -18 164 96 241 238 36 67 52 147 30 155 -6 2 -33 -13 -59 -33z"/>
<path d="M3553 4058 c-46 -22 -41 -125 10 -221 50 -96 150 -167 232 -167 65 0
85 21 85 90 0 115 -120 267 -235 299 -48 13 -63 13 -92 -1z"/>
<path d="M3977 4023 c-10 -9 -8 -61 2 -67 4 -3 11 -18 14 -34 10 -49 79 -154
147 -224 54 -56 72 -68 97 -68 18 0 34 4 37 8 6 10 -26 117 -38 129 -4 4 -14
22 -22 38 -19 42 -37 69 -51 78 -7 4 -13 13 -13 18 0 16 -100 109 -127 120
-29 11 -37 11 -46 2z"/>
<path d="M1370 3620 c-74 -8 -148 -65 -193 -148 -31 -59 -37 -79 -37 -131 0
-69 23 -122 69 -156 41 -31 158 -34 213 -5 66 34 130 108 151 174 22 74 22
114 -3 171 -35 81 -91 107 -200 95z"/>
<path d="M2045 3621 c-22 -4 -53 -16 -70 -26 -40 -26 -95 -82 -95 -98 0 -6 -7
-21 -15 -31 -22 -29 -20 -142 3 -187 42 -83 106 -119 207 -119 54 0 80 5 113
23 127 68 180 200 126 318 -19 44 -55 89 -69 89 -5 0 -16 7 -25 15 -19 18
-118 27 -175 16z"/>
<path d="M805 3592 c-41 -21 -96 -80 -119 -127 -10 -22 -26 -53 -34 -69 -10
-20 -16 -61 -16 -122 -1 -85 1 -95 23 -118 30 -32 63 -33 116 -5 73 39 134
137 159 256 12 61 13 79 1 123 -21 78 -62 98 -130 62z"/>
<path d="M3401 3555 c-39 -35 -71 -104 -71 -150 0 -50 55 -180 90 -214 66 -63
154 -92 221 -72 61 18 106 72 113 135 22 173 -105 336 -261 336 -47 0 -58 -4
-92 -35z"/>
<path d="M494 3538 c-54 -63 -120 -245 -130 -358 -6 -68 -4 -80 9 -80 8 0 18
6 21 13 3 6 15 26 26 42 11 17 25 41 31 55 6 14 17 37 25 52 8 14 14 34 14 43
0 9 6 29 14 43 15 30 44 182 38 200 -6 19 -27 14 -48 -10z"/>
<path d="M1575 2997 c-109 -53 -158 -159 -141 -301 9 -65 54 -131 119 -174 36
-23 53 -27 117 -27 70 0 79 3 130 37 104 70 144 192 105 321 -32 105 -99 158
-210 164 -59 3 -78 0 -120 -20z"/>
<path d="M2415 3014 c-71 -17 -142 -67 -177 -124 -44 -72 -41 -218 5 -285 59
-85 115 -115 215 -115 106 0 170 35 228 125 28 44 28 226 0 270 -27 41 -76 87
-117 107 -36 18 -120 30 -154 22z"/>
<path d="M914 2991 c-145 -79 -179 -328 -64 -463 36 -41 38 -42 102 -42 94 0
141 32 187 128 33 67 33 212 1 277 -29 58 -47 77 -92 100 -44 23 -92 23 -134
0z"/>
<path d="M463 2958 c-63 -68 -95 -224 -73 -355 22 -137 73 -186 134 -130 44
41 59 100 63 242 3 103 1 138 -13 175 -19 52 -50 90 -74 90 -9 0 -26 -10 -37
-22z"/>
<path d="M267 2835 c-10 -99 -8 -337 2 -353 13 -21 21 75 20 238 0 165 -12
224 -22 115z"/>
<path d="M1980 2289 c-150 -53 -198 -245 -93 -378 58 -74 102 -95 195 -94 63
1 85 6 115 24 40 25 73 55 73 66 0 3 8 15 18 26 26 29 24 189 -3 237 -31 54
-86 100 -145 121 -66 23 -89 23 -160 -2z"/>
<path d="M1234 2285 c-18 -8 -46 -32 -64 -54 -31 -40 -32 -44 -31 -136 0 -105
11 -134 75 -203 54 -58 89 -74 165 -74 82 -1 126 21 163 80 19 31 23 50 22
122 0 99 -21 149 -89 214 -67 62 -167 83 -241 51z"/>
<path d="M663 2258 c-53 -59 -47 -223 13 -335 33 -62 66 -103 83 -103 5 0 14
-7 21 -15 7 -9 29 -15 51 -15 32 0 42 6 66 37 26 34 28 43 28 132 -1 91 -3
100 -39 171 -38 75 -81 124 -124 141 -40 15 -77 10 -99 -13z"/>
<path d="M353 2213 c-17 -50 27 -254 72 -335 8 -14 15 -31 15 -37 0 -6 7 -19
15 -28 8 -10 21 -27 28 -37 9 -13 20 -17 32 -13 15 6 16 17 10 100 -4 50 -14
104 -21 119 -8 15 -14 37 -14 48 0 12 -6 34 -13 48 -8 15 -25 49 -38 76 -43
90 -70 108 -86 59z"/>
<path d="M1058 1651 c-14 -14 -18 -35 -18 -92 0 -70 2 -78 41 -137 54 -83 88
-116 153 -146 70 -33 106 -33 137 0 20 21 24 36 24 87 0 111 -78 233 -183 286
-52 26 -129 27 -154 2z"/>
<path d="M670 1600 c0 -40 54 -165 86 -201 8 -8 14 -19 14 -23 0 -16 105 -117
142 -136 36 -19 38 -19 47 -1 22 39 -29 188 -85 252 -8 8 -14 20 -14 25 0 6
-28 36 -61 67 -50 46 -68 57 -95 57 -33 0 -34 -1 -34 -40z"/>
<path d="M530 1551 c0 -4 8 -19 18 -32 17 -25 21 -30 68 -109 15 -25 48 -72
73 -104 25 -33 49 -64 53 -70 4 -6 10 -7 14 -3 4 4 0 15 -9 25 -10 10 -17 22
-17 25 0 4 -16 30 -35 57 -19 27 -35 52 -35 55 0 5 -48 76 -94 138 -20 27 -36
35 -36 18z"/>
<path d="M1546 1149 c-89 -70 78 -287 235 -306 39 -5 50 -2 68 16 18 18 21 28
15 59 -15 77 -53 138 -128 199 -17 15 -124 53 -147 53 -9 0 -28 -9 -43 -21z"/>
<path d="M2085 1153 c-47 -24 -65 -53 -65 -106 0 -85 65 -177 142 -197 101
-28 173 27 173 130 -1 37 -7 65 -20 85 -29 45 -58 75 -75 75 -8 0 -24 7 -34
15 -26 19 -83 18 -121 -2z"/>
<path d="M1140 1109 c0 -41 47 -101 150 -192 38 -35 156 -97 181 -97 30 0 23
35 -18 97 -80 120 -207 223 -275 223 -36 0 -38 -2 -38 -31z"/>
<path d="M920 1098 c0 -15 164 -177 206 -204 16 -10 48 -33 72 -51 45 -34 62
-40 62 -23 0 13 -192 197 -240 230 -12 8 -36 25 -53 38 -35 25 -47 28 -47 10z"/>
<path d="M1680 727 c0 -33 208 -163 293 -183 37 -8 34 3 -10 43 -111 99 -283
184 -283 140z"/>
<path d="M1993 724 c-18 -48 111 -168 188 -174 57 -5 60 3 30 69 -19 44 -71
97 -109 112 -39 15 -102 11 -109 -7z"/>
<path d="M2369 731 c-31 -20 -43 -68 -29 -112 26 -78 90 -101 141 -50 24 25
29 38 29 78 0 27 -6 57 -13 67 -16 22 -102 32 -128 17z"/>
<path d="M2715 702 c-54 -38 -96 -99 -92 -137 2 -26 6 -30 27 -27 14 1 47 14
73 28 88 46 135 102 122 145 -10 30 -80 25 -130 -9z"/>
<path d="M1482 708 c5 -14 29 -28 141 -87 43 -23 88 -41 100 -41 30 0 15 11
-78 60 -44 24 -84 46 -90 50 -5 4 -25 12 -43 18 -26 9 -33 9 -30 0z"/>
<path d="M3080 700 c-78 -25 -272 -168 -242 -178 6 -2 24 4 41 12 16 9 36 16
43 16 22 0 151 69 192 104 54 45 37 69 -34 46z"/>
<path d="M1755 560 c3 -5 15 -10 26 -10 11 0 17 5 14 10 -3 6 -15 10 -26 10
-11 0 -17 -4 -14 -10z"/>
</g>
</svg>
